<svg id="euqaIY8wA4S1" xmlns="http://www.w3.org/2000/svg" xmlns:xlink="http://www.w3.org/1999/xlink" viewBox="0 0 512 512" shape-rendering="geometricPrecision" text-rendering="geometricPrecision" project-id="8d32ec67bc474d869ddf74b7fc1a37c8" export-id="c21036a01575499dbf6f305d5b11313a" cached="false"><defs><linearGradient id="euqaIY8wA4S2-fill" x1="1.020136" y1="0" x2="-0.046278" y2="1.046278" spreadMethod="pad" gradientUnits="objectBoundingBox" gradientTransform="translate(0 0)"><stop id="euqaIY8wA4S2-fill-0" offset="0%" stop-color="rgba(0,227,255,0.63)"/><stop id="euqaIY8wA4S2-fill-1" offset="0%" stop-color="rgba(253,253,253,0.64)"/><stop id="euqaIY8wA4S2-fill-2" offset="100%" stop-color="#60c8f2"/></linearGradient></defs><path d="M256,21.688C126.7,21.688,21.687,126.698,21.687,256C21.688,385.3,126.7,490.313,256,490.313s234.313-105.012,234.313-234.313C490.313,126.7,385.3,21.687,256,21.687v.001Zm-201.47,9c-5.975328,0-11.705921,2.37369-15.931116,6.598884s-6.598884,9.955788-6.598884,15.931116c-.00053,5.975674,2.372925,11.706782,6.598177,15.932409s9.956149,6.599591,15.931823,6.599591c5.975674.00053,11.706782-2.372925,15.932409-6.598177s6.599591-9.956149,6.599591-15.931823c.00053-5.975674-2.372925-11.706782-6.598177-15.932409s-9.956149-6.599591-15.931823-6.599591h-.002Zm404.25,0c-12.442975,0-22.53,10.087025-22.53,22.53-.00053,5.975674,2.372925,11.706782,6.598177,15.932409s9.956149,6.599591,15.931823,6.599591c5.975847.000796,11.707212-2.372543,15.933055-6.597823s6.599945-9.95633,6.599945-15.932177c.000531-5.976021-2.373199-11.707431-6.598884-15.933116s-9.957095-6.599415-15.933116-6.598884h-.001Zm-202.78,9c119.573,0,216.313,96.74,216.313,216.312c0,119.573-96.74,216.313-216.313,216.313s-216.313-96.741-216.313-216.313s96.741-216.313,216.313-216.313v.001Zm43.684,22.433c-.485-.01-.955-.008-1.41.003-6.047.15-9.43,2.236-8.545,6.738c10.475,42.195,11.75,85.79-5.087,124.314c12.714,5.83,23.38,15.397,30.556,27.297c28.976-24.022,58.114-55.318,76.618-79.786c26.14-34.564-61.598-77.91-92.134-78.563l.002-.003Zm-98.278,4.392c-40.03-.548-110.755,59.8-90.63,66.685c41.8,12.03,80.21,32.736,105.154,66.608c11.014-7.883,24.416-12.613,38.882-12.86-6.316-37.106-18.853-77.99-30.79-106.25-4.202-9.947-12.412-14.044-22.616-14.183ZM438.22,190.227c-1.095.02-2.198.483-3.298,1.443-31.292,30.16-68.396,53.055-110.16,57.748.206,2.168.322,4.36.322,6.582c0,12.156-3.18,23.588-8.732,33.53c35.294,13.084,76.97,22.67,107.416,26.462c49.867,6.21,33.393-126.102,14.453-125.765h-.001Zm-353.636,5.58c-48.158.507-27.205,141.674-7.564,124.533c31.307-30.175,68.43-53.08,110.218-57.756-.207-2.17-.322-4.363-.322-6.584c0-12.144,3.174-23.567,8.717-33.502-35.305-13.093-77.003-22.687-107.46-26.48-1.238-.154-2.433-.224-3.59-.21l.001-.001ZM256,204.917c-11.406,0-21.907,3.696-30.387,9.958c1.986,3.567,3.84,7.256,5.55,11.074c6.763-5.608,15.427-8.99,24.837-8.99.844,0,1.68.035,2.51.09-.264-3.93-.632-7.967-1.108-12.1-.467-.01-.932-.034-1.402-.034v.002Zm20.42,4.22c-2.088,3.49-4.345,6.925-6.785,10.302c9.298,3.5,16.938,10.46,21.336,19.29c3.297-2.21,6.634-4.567,10-7.066-5.402-10.007-14.048-17.97-24.55-22.527l-.001.001Zm-63.98,20.088c-4.77,7.775-7.524,16.938-7.524,26.775c0,1.94.116,3.85.324,5.73c4.05.066,8.14.303,12.268.727-.355-2.103-.55-4.258-.55-6.457c0-7.987,2.44-15.436,6.606-21.643-3.563-1.75-7.273-3.464-11.123-5.132h-.001ZM256,234.96c-11.728,0-21.04,9.312-21.04,21.04s9.312,21.04,21.04,21.04s21.04-9.312,21.04-21.04-9.312-21.04-21.04-21.04Zm38.494,14.6c.353,2.098.547,4.247.547,6.44c0,8-2.446,15.46-6.624,21.672c3.564,1.75,7.275,3.465,11.125,5.133c4.785-7.782,7.544-16.955,7.544-26.805c0-1.935-.115-3.84-.322-5.72-4.05-.062-8.14-.297-12.268-.72h-.002Zm-73.478,23.686c-3.297,2.21-6.633,4.567-10,7.065c5.394,10.005,14.03,17.97,24.52,22.534c2.09-3.488,4.346-6.925,6.786-10.3-9.287-3.51-16.918-10.472-21.306-19.298v-.001Zm59.773,12.846c-6.758,5.583-15.403,8.95-24.79,8.95-.865,0-1.72-.04-2.572-.097.264,3.93.632,7.968,1.107,12.102.488.013.974.037,1.465.037c11.385,0,21.867-3.684,30.338-9.924-1.986-3.565-3.84-7.252-5.55-11.068h.002ZM196.784,291.5c-28.992,24.028-58.15,55.347-76.664,79.828-32.065,42.4,107.234,98.014,102.09,71.82-10.48-42.204-11.75-85.81,5.1-124.343-12.704-5.837-23.356-15.407-30.525-27.305h-.001Zm99.242,20.727c-11.02,7.875-24.43,12.594-38.902,12.828c6.316,37.11,18.854,77.997,30.793,106.26c20.686,48.97,138.5-43.86,113.242-52.5-41.79-12.027-80.187-32.73-105.133-66.588ZM52.803,436.25c-5.975674-.00053-11.706782,2.372925-15.932409,6.598177s-6.599591,9.956149-6.599591,15.931823c-.000796,5.976367,2.372954,11.708186,6.598884,15.934116s9.957749,6.59968,15.934116,6.598884c5.975674,0,11.706571-2.373964,15.931823-6.599591s6.598707-9.956735,6.598177-15.932409c0-5.975328-2.37369-11.705921-6.598884-15.931116s-9.955788-6.598884-15.931116-6.598884l-.001-.001Zm406.156,0c-5.975674-.00053-11.706782,2.372925-15.932409,6.598177s-6.599591,9.956149-6.599591,15.931823c-.000796,5.975847,2.372543,11.707212,6.597823,15.933055s9.95633,6.599945,15.932177,6.599945c5.976021.000531,11.707431-2.373199,15.933116-6.598884s6.599415-9.957095,6.598884-15.933116c0-5.975328-2.37369-11.705921-6.598884-15.931116s-9.955788-6.598884-15.931116-6.598884v-.001Z" fill="url(#euqaIY8wA4S2-fill)" stroke="#000" stroke-width="0"/></svg>
